<svg width="163" height="107" viewBox="0 0 163 107" fill="none" xmlns="http://www.w3.org/2000/svg">
<rect x="56" width="51" height="51" rx="5" fill="#D9D9D9"/>
<rect y="56" width="51" height="51" rx="5" fill="#D9D9D9"/>
<rect x="56" y="56" width="51" height="51" rx="5" fill="#D9D9D9"/>
<rect x="112" y="56" width="51" height="51" rx="5" fill="#D9D9D9"/>
<path d="M149.061 82.0607C149.646 81.4749 149.646 80.5251 149.061 79.9393L139.515 70.3934C138.929 69.8076 137.979 69.8076 137.393 70.3934C136.808 70.9792 136.808 71.9289 137.393 72.5147L145.879 81L137.393 89.4853C136.808 90.0711 136.808 91.0208 137.393 91.6066C137.979 92.1924 138.929 92.1924 139.515 91.6066L149.061 82.0607ZM127 82.5H148V79.5H127V82.5Z" fill="black"/>
<path d="M13.9393 79.9393C13.3536 80.5251 13.3536 81.4749 13.9393 82.0607L23.4853 91.6066C24.0711 92.1924 25.0208 92.1924 25.6066 91.6066C26.1924 91.0208 26.1924 90.0711 25.6066 89.4853L17.1213 81L25.6066 72.5147C26.1924 71.9289 26.1924 70.9792 25.6066 70.3934C25.0208 69.8076 24.0711 69.8076 23.4853 70.3934L13.9393 79.9393ZM36 79.5L15 79.5L15 82.5L36 82.5L36 79.5Z" fill="black"/>
</svg>
